# xmcd
#
# Track frame offsets: 
#        150
#        23648
#        49112
#        59451
#        77491
#        88665
#        102055
#        111740
#        123574
#        137443
#        154557
#        171698
#        189773
#        208336
#        225104
#        241547
#        254568
#        272952
#        293456
#        307791
#
# Disc length: 4316 seconds
#
# Revision: 0
# Processed by: cddbd v1.5.1PL0 Copyright (c) Steve Scherf et al.
# Submitted via: ExactAudioCopy v0.95a5
#
DISCID=0810da14
DTITLE=John Denver - The Best of John Denver - Disc 2
DYEAR=2004
DGENRE=Country
TTITLE0=Sunshine On My Shoulders
TTITLE1=Flying For Me
TTITLE2=Grandma's Feather Bed
TTITLE3=Windsong
TTITLE4=Follow Me
TTITLE5=Whispering Jesse
TTITLE6=I Guess He'd Rather Be In Colorado
TTITLE7=It Amazes Me
TTITLE8=Rocky Mountain Suite
TTITLE9=I Want To Live
TTITLE10=Come And Let Me Look In Your Eyes
TTITLE11=Looking For Space
TTITLE12=Dreamland Express
TTITLE13=It's About Time
TTITLE14=Autograph
TTITLE15=This Old Guitar
TTITLE16=Wild Moutana Skies
TTITLE17=Sing Australia
TTITLE18=Shanghai Breezes
TTITLE19=Two Different Directions
EXTD=
EXTT0=
EXTT1=
EXTT2=
EXTT3=
EXTT4=
EXTT5=
EXTT6=
EXTT7=
EXTT8=
EXTT9=
EXTT10=
EXTT11=
EXTT12=
EXTT13=
EXTT14=
EXTT15=
EXTT16=
EXTT17=
EXTT18=
EXTT19=
PLAYORDER=
